<svg xmlns="http://www.w3.org/2000/svg" xmlns:xlink="http://www.w3.org/1999/xlink" width="17.291" height="24.658" viewBox="0 0 17.291 24.658"><defs><linearGradient id="a" x1="0.5" x2="0.5" y2="1" gradientUnits="objectBoundingBox"><stop offset="0" stop-color="#c72931"/><stop offset="0.335" stop-color="#c72931"/><stop offset="1" stop-color="#ffe200"/></linearGradient></defs><path d="M108.48,16.2a8.648,8.648,0,0,0,6.849,8.458,3.679,3.679,0,0,1-1.954-3.669,2.6,2.6,0,0,0,3.292,1.536,2.541,2.541,0,0,0,1.414-3.345c-.555-1.79-2.334-3.4-2.269-5.921.684,2.864,3.155,3.474,4.575,5.2a4.29,4.29,0,0,1,.927,2,8.563,8.563,0,0,0,.6-1.3,19.668,19.668,0,0,0,.722-2.555c.78,3.227.208,5.936-2.011,7.5a8.647,8.647,0,0,0,5.14-7.9,8.092,8.092,0,0,0-.32-2.412,7.737,7.737,0,0,0-2.167-3.429c-.348,1.506-1.36,2.094-2.154,1.775-1.674-.674-.648-2.552-.457-3.883.19-1.312-.12-2.784-2.233-4.378.4,1.808-.459,2.111-1.04,2.116C116.166,6,114.7,3.158,118.789,0c-6.994,1.8-6.451,6.735-5.66,10.6a8.939,8.939,0,0,1,.205,1.9c-.027,1.94-2.2,1.888-2.36.011a9.345,9.345,0,0,1,.1-2.283,5.9,5.9,0,0,0-1.727,2.2c-.118.248-.213.479-.3.681a8.563,8.563,0,0,0-.568,3.087Z" transform="translate(-108.48)" fill-rule="evenodd" fill="url(#a)"/></svg>