<svg width="384" height="95" viewBox="0 0 384 95" fill="none" xmlns="http://www.w3.org/2000/svg">
<g clip-path="url(#clip0_1_117)">
<mask id="mask0_1_117" style="mask-type:luminance" maskUnits="userSpaceOnUse" x="0" y="0" width="384" height="95">
<path d="M384 0H0V95H384V0Z" fill="white"/>
</mask>
<g mask="url(#mask0_1_117)">
<path d="M35.2835 84.309C30.0004 84.309 25.1886 83.3744 20.8499 81.5108C16.5094 79.6453 12.7991 77.1159 9.71712 73.9208C6.63517 70.7295 4.24703 66.9628 2.54897 62.6319C0.849032 58.301 0 53.6673 0 48.7327C0 43.7981 0.880824 38.9783 2.64247 34.6455C4.40225 30.3164 6.85584 26.5515 10.0014 23.3565C13.1469 20.1652 16.8722 17.6659 21.1809 15.8625C25.4878 14.059 30.1893 13.1582 35.2853 13.1582C38.6179 13.1582 41.7933 13.5701 44.8136 14.39C47.8319 15.2137 50.6614 16.3683 53.3039 17.8521C55.9445 19.3396 58.3345 21.1412 60.4739 23.2606C62.2318 25.0039 63.7784 26.8882 65.1118 28.9079C65.5868 29.6281 65.4035 30.5797 64.6798 31.0404L52.8307 38.5946C52.1332 39.0403 51.2056 38.8222 50.7811 38.1113C49.2981 35.6309 47.4037 33.6206 45.0978 32.0841C42.3918 30.2807 39.1546 29.3799 35.3807 29.3799C32.6129 29.3799 30.0976 29.8877 27.8329 30.8975C25.5682 31.9093 23.6177 33.2839 21.9832 35.0234C20.3487 36.763 19.0733 38.8184 18.1626 41.1898C17.2499 43.5612 16.7936 46.0755 16.7936 48.7308C16.7936 51.3862 17.2331 53.8704 18.1139 56.1778C18.9948 58.4871 20.2515 60.5106 21.8878 62.2501C23.5223 63.9896 25.4579 65.3662 27.6908 66.3761C29.9237 67.3897 32.4222 67.8937 35.1918 67.8937C39.3416 67.8937 42.7994 66.8368 45.5691 64.7155C47.9516 62.8914 49.846 60.6329 51.2505 57.9399C51.6283 57.214 52.5278 56.947 53.2459 57.3325L65.757 64.0517C66.4882 64.4447 66.7762 65.3662 66.3704 66.0921C65.0594 68.4315 63.5035 70.613 61.7026 72.6364C59.5632 75.0398 57.1582 77.1122 54.4858 78.8498C51.8115 80.5912 48.8567 81.9339 45.6177 82.8836C42.3768 83.8314 38.932 84.3072 35.2872 84.3072" fill="white"/>
<path d="M96.7299 14.1079H110.447C111.085 14.1079 111.652 14.516 111.859 15.1215L134.422 81.3735C134.753 82.3476 134.035 83.3594 133.01 83.3594H119.482C118.837 83.3594 118.264 82.9419 118.064 82.3251L115.435 74.2406C115.235 73.6237 114.662 73.2062 114.017 73.2062H93.0664C92.4212 73.2062 91.8489 73.6237 91.6488 74.2406L89.0213 82.3232C88.8212 82.94 88.249 83.3575 87.6038 83.3575H74.1689C73.1459 83.3575 72.4259 82.3439 72.7569 81.3716L95.3199 15.1197C95.5274 14.5122 96.0941 14.106 96.7318 14.106M99.047 58.1242H108.132C109.147 58.1242 109.867 57.1256 109.55 56.1553L105.007 42.2542C104.558 40.8776 102.623 40.8776 102.172 42.2542L97.6294 56.1553C97.3115 57.1256 98.0315 58.1242 99.047 58.1242Z" fill="white"/>
<path d="M169.331 62.7729H163.283C162.461 62.7729 161.791 63.4443 161.791 64.2736V81.8587C161.791 82.688 161.123 83.3594 160.299 83.3594H146.868C146.045 83.3594 145.375 82.688 145.375 81.8587V15.6067C145.375 14.7774 146.043 14.106 146.868 14.106H170.186C174.338 14.106 178.016 14.7379 181.225 16.0016C184.431 17.2673 187.135 18.9767 189.338 21.1262C191.539 23.2756 193.205 25.7899 194.337 28.6672C195.47 31.5463 196.035 34.6285 196.035 37.9176C196.035 42.2166 195.105 46.1225 193.252 49.6335C191.597 52.7646 189.353 55.3034 186.522 57.2516C185.921 57.6635 185.734 58.4683 186.056 59.1228L196.946 81.1892C197.437 82.1859 196.715 83.3556 195.608 83.3556H180.758C180.178 83.3556 179.651 83.0171 179.406 82.4887L170.682 63.6361C170.437 63.1077 169.909 62.7692 169.33 62.7692M161.789 30.7809V45.9946C161.789 46.8239 162.457 47.4953 163.282 47.4953H168.961C172.483 47.4953 175.076 46.6096 176.745 44.84C178.409 43.0685 179.245 40.887 179.245 38.2937C179.245 35.4485 178.396 33.2351 176.7 31.6535C175.002 30.072 172.421 29.2821 168.963 29.2821H163.283C162.461 29.2821 161.791 29.9535 161.791 30.7828" fill="white"/>
<path d="M232.171 84.4031C228.711 84.4031 225.614 84.0552 222.878 83.3594C220.141 82.6636 217.657 81.7458 215.424 80.61C213.191 79.4704 211.194 78.1427 209.434 76.6251C208.09 75.4667 206.82 74.2537 205.623 72.9862C205.023 72.3487 205.114 71.3238 205.802 70.7822L217.693 61.4058C218.358 60.8811 219.329 61.024 219.815 61.7217C221.268 63.8091 222.948 65.4565 224.859 66.6657C227.155 68.1212 229.59 68.8471 232.171 68.8471C234.752 68.8471 236.667 68.1682 238.114 66.8067C239.56 65.4471 240.284 63.9144 240.284 62.2069C240.284 61.1312 239.938 60.2304 239.246 59.5026C238.554 58.7749 237.611 58.1261 236.416 57.5582C235.221 56.9902 233.871 56.4844 232.36 56.0405C230.851 55.5986 229.246 55.1247 227.548 54.617C225.283 53.9851 222.987 53.2084 220.66 52.2907C218.334 51.3749 216.21 50.1582 214.293 48.6387C212.374 47.1211 210.816 45.2085 209.623 42.8992C208.426 40.5899 207.83 37.7277 207.83 34.3126C207.83 31.2774 208.409 28.4641 209.574 25.8689C210.738 23.2775 212.372 21.0321 214.482 19.1328C216.587 17.2372 219.118 15.7496 222.074 14.674C225.031 13.6002 228.268 13.0605 231.791 13.0605C234.81 13.0605 237.548 13.3632 239.999 13.9631C242.453 14.563 244.671 15.3547 246.651 16.3326C248.634 17.3162 250.408 18.4671 251.983 19.7947C253.113 20.7519 254.18 21.7561 255.181 22.8111C255.804 23.4656 255.736 24.5149 255.02 25.0659L244.374 33.2463C243.71 33.7578 242.761 33.6168 242.262 32.9417C241.155 31.4485 239.837 30.228 238.303 29.2821C236.353 28.0823 234.215 27.4787 231.887 27.4787C229.558 27.4787 227.657 28.0334 226.368 29.1392C225.078 30.245 224.434 31.6215 224.434 33.2651C224.434 34.3408 224.778 35.2416 225.472 35.9694C226.162 36.6972 227.09 37.3441 228.253 37.9139C229.418 38.4818 230.77 39.0046 232.311 39.4785C233.852 39.9524 235.472 40.4451 237.17 40.9491C239.496 41.6449 241.854 42.4817 244.246 43.4634C246.635 44.445 248.806 45.7088 250.754 47.2584C252.703 48.8079 254.293 50.7524 255.519 53.0937C256.744 55.4331 257.36 58.3104 257.36 61.7255C257.36 64.7005 256.793 67.5458 255.662 70.2632C254.528 72.9843 252.894 75.3858 250.754 77.4732C248.617 79.5606 245.991 81.2362 242.877 82.4999C239.764 83.7637 236.194 84.3974 232.171 84.3974" fill="white"/>
<path d="M324.334 0C339.716 0 352.186 12.5395 352.186 28.0071C352.186 43.4747 339.716 56.0142 324.334 56.0142C308.952 56.0142 296.482 43.4747 296.482 28.0071C296.482 12.5395 308.952 0 324.334 0Z" fill="#794791"/>
<path d="M363.019 50.6828C374.606 50.6828 384 60.1289 384 71.7808C384 83.4327 374.606 92.8787 363.019 92.8787C351.432 92.8787 342.038 83.4327 342.038 71.7808C342.038 60.1289 351.432 50.6828 363.019 50.6828Z" fill="#53AACC"/>
<path d="M319.401 64.52C327.771 64.52 334.556 71.3426 334.556 79.76C334.556 88.1773 327.771 95 319.401 95C311.03 95 304.245 88.1773 304.245 79.76C304.245 71.3426 311.03 64.52 319.401 64.52Z" fill="#2F40A5"/>
<path d="M294.723 53.0561C299.043 53.0561 302.545 56.5784 302.545 60.9225C302.545 65.2665 299.043 68.7888 294.723 68.7888C290.403 68.7888 286.9 65.2665 286.9 60.9225C286.9 56.5784 290.403 53.0561 294.723 53.0561Z" fill="#009BD8"/>
<path d="M370.92 21.0904C376.895 21.0904 381.741 25.9611 381.741 31.9713C381.741 37.9816 376.897 42.8522 370.92 42.8522C364.943 42.8522 360.1 37.9816 360.1 31.9713C360.1 25.9611 364.945 21.0904 370.92 21.0904Z" fill="#EC7425"/>
</g>
</g>
<defs>
<clipPath id="clip0_1_117">
<rect width="384" height="95" fill="white"/>
</clipPath>
</defs>
</svg>
