<svg id="Layer_1" data-name="Layer 1" xmlns="http://www.w3.org/2000/svg" xmlns:xlink="http://www.w3.org/1999/xlink" viewBox="0 0 150 150"><defs><style>.cls-1,.cls-13,.cls-2{fill:none;}.cls-1{clip-rule:evenodd;}.cls-3{clip-path:url(#clip-path);}.cls-4{clip-path:url(#clip-path-2);}.cls-5{clip-path:url(#clip-path-3);}.cls-6{clip-path:url(#clip-path-4);}.cls-7{clip-path:url(#clip-path-5);}.cls-8{clip-path:url(#clip-path-6);}.cls-9{clip-path:url(#clip-path-7);}.cls-10{clip-path:url(#clip-path-8);}.cls-11{clip-path:url(#clip-path-9);}.cls-12{fill:#fff;}.cls-13{stroke:#261b57;stroke-miterlimit:10;stroke-width:2.55px;}.cls-14{clip-path:url(#clip-path-11);}.cls-15{clip-path:url(#clip-path-12);}.cls-16{fill:#02c0de;}.cls-17{clip-path:url(#clip-path-13);}.cls-18{fill:#532c7f;}.cls-19{clip-path:url(#clip-path-15);}.cls-20{clip-path:url(#clip-path-17);}.cls-21{clip-path:url(#clip-path-19);}.cls-22{fill:#261b57;}</style><clipPath id="clip-path"><path class="cls-1" d="M-189.2,80.15v4.31a4.34,4.34,0,0,1-1.41,3.21,4.36,4.36,0,0,1-3.34,1.12A29.92,29.92,0,0,1-207,84.14a29.56,29.56,0,0,1-9.1-9.09,30.09,30.09,0,0,1-4.66-13.17,4.34,4.34,0,0,1,1.12-3.31,4.3,4.3,0,0,1,3.19-1.41h4.32a4.34,4.34,0,0,1,4.33,3.74,17,17,0,0,0,.93,3.73,4.36,4.36,0,0,1-1,4.58l-1,1a21.66,21.66,0,0,0,6.62,6.62l1-1a4.32,4.32,0,0,1,4.57-1,17.15,17.15,0,0,0,3.75.93A4.34,4.34,0,0,1-189.2,80.15Z"/></clipPath><clipPath id="clip-path-2"><path class="cls-1" d="M-110.62,67.81H-125a4.78,4.78,0,0,0-4.79,4.79v9.59A4.79,4.79,0,0,0-125,87h9.31l4.79,4.79V87h.28a4.8,4.8,0,0,0,4.8-4.8V72.6A4.79,4.79,0,0,0-110.62,67.81Z"/></clipPath><clipPath id="clip-path-3"><path class="cls-1" d="M-139.38,58.22H-125A4.78,4.78,0,0,1-120.21,63V72.6A4.79,4.79,0,0,1-125,77.4h-9.31l-4.79,4.79V77.4h-.28a4.8,4.8,0,0,1-4.8-4.8V63A4.79,4.79,0,0,1-139.38,58.22Z"/></clipPath><clipPath id="clip-path-4"><path class="cls-1" d="M-125,67.81h4.79V72.6A4.79,4.79,0,0,1-125,77.4h-4.79V72.6A4.78,4.78,0,0,1-125,67.81Z"/></clipPath><clipPath id="clip-path-5"><rect class="cls-2" x="-60.2" y="63.28" width="30.38" height="24.86" rx="4.14"/></clipPath><clipPath id="clip-path-6"><path class="cls-1" d="M-56.06,63.28H-34a4.15,4.15,0,0,1,4.14,4.14l-2.52,1.79c-3,2.35-2,1.4-4.93,3.17l-7.49,4.27c-2.28,0-1.49,1.07-1.49-1.21l-13.94-8A4.15,4.15,0,0,1-56.06,63.28Z"/></clipPath><clipPath id="clip-path-7"><path class="cls-1" d="M-59.23,65c-.63-.43-1.43,3-.8,3.49l14.22,9.72a1.4,1.4,0,0,0,1.59,0L-30,68.71c.62-.43.17-3.69-.45-3.26L-45,75.4Z"/></clipPath><clipPath id="clip-path-8"><circle class="cls-2" cx="75" cy="76.9" r="50"/></clipPath><clipPath id="clip-path-9"><rect class="cls-2" x="16" y="20.9" width="118" height="112"/></clipPath><clipPath id="clip-path-11"><path class="cls-1" d="M74.9,91.65H86.54q.15-6.09,1.18-6.81A22.47,22.47,0,1,0,52.37,66.43a22.8,22.8,0,0,0,9.39,18.41q1,.7,1.39,6.81Z"/></clipPath><clipPath id="clip-path-12"><rect class="cls-2" x="16" y="21.11" width="118" height="112"/></clipPath><clipPath id="clip-path-13"><path class="cls-1" d="M81.5,62.6q2.34-3,2.34-4.66T81.5,53.27a6.72,6.72,0,0,0,4.67,2.34,6.7,6.7,0,0,0,4.66-2.34q-2.33,3-2.33,4.67t2.33,4.66q-3.08-2.33-4.66-2.33C85.11,60.27,83.56,61.05,81.5,62.6Z"/></clipPath><clipPath id="clip-path-15"><path class="cls-1" d="M76.17,55.27C77.39,53.68,78,52.46,78,51.61s-.62-2.07-1.84-3.67a4.57,4.57,0,0,0,7.33,0c-1.22,1.58-1.83,2.8-1.83,3.67s.61,2.08,1.83,3.66q-2.41-1.83-3.66-1.83C79,53.44,77.79,54.05,76.17,55.27Z"/></clipPath><clipPath id="clip-path-17"><path class="cls-1" d="M64.42,101.44a1.27,1.27,0,0,1-1.27-1.27V91.45H86.54v8.72a1.27,1.27,0,0,1-1.28,1.27H83a8.13,8.13,0,0,1-16.25.25v-.25Z"/></clipPath><clipPath id="clip-path-19"><rect class="cls-2" x="63.15" y="91.45" width="23.39" height="4.65"/></clipPath></defs><title>Lightbulb</title><g class="cls-10"><g class="cls-11"><rect class="cls-12" x="20" y="21.9" width="110" height="110"/></g></g><g class="cls-11"><circle class="cls-13" cx="75" cy="76.9" r="50"/></g><g class="cls-14"><g class="cls-15"><rect class="cls-16" x="47.37" y="38.96" width="54.93" height="57.69"/></g></g><g class="cls-17"><g class="cls-11"><rect class="cls-18" x="76.5" y="48.27" width="19.33" height="19.33"/></g></g><g class="cls-19"><g class="cls-11"><rect class="cls-18" x="71.17" y="42.94" width="17.33" height="17.33"/></g></g><g class="cls-20"><g class="cls-11"><rect class="cls-18" x="58.15" y="86.45" width="33.39" height="28.12"/></g></g><g class="cls-21"><g class="cls-11"><rect class="cls-22" x="58.15" y="86.45" width="33.39" height="14.65"/></g></g></svg>